Coordinates
version=1
nRows=17
nColumns=23
inDegrees=yes

Units are S.I. units (second, meters, Newtons, ...)
If the header above contains a line with 'inDegrees', this indicates whether rotational values are in degrees (yes) or radians (no).

endheader
time	pelvis_tilt	pelvis_list	pelvis_rotation	pelvis_tx	pelvis_ty	pelvis_tz	hip_flexion_r	hip_adduction_r	hip_rotation_r	knee_angle_r	knee_angle_r_beta	ankle_angle_r	subtalar_angle_r	mtp_angle_r	hip_flexion_l	hip_adduction_l	hip_rotation_l	knee_angle_l	knee_angle_l_beta	ankle_angle_l	subtalar_angle_l	mtp_angle_l
     22.50000000	     -0.29539710	     -7.34584059	    -10.36953621	      2.41537337	      0.98871472	      1.06029525	     26.07594226	     11.42607677	     -3.53381148	     48.41447968	      0.84499208	     17.27407560	     -4.58107568	      0.00000000	      1.39756203	    -11.26988568	     -9.80930066	    112.90279713	      1.97052554	     -8.29743828	    -10.50563942	      0.00000000
     22.50666667	     -0.01436081	     -7.20359902	    -10.00717051	      2.41256969	      0.98616609	      1.05968771	     24.75174802	     11.14275313	     -3.03929892	     49.83147638	      0.86972333	     19.54202253	     -4.79874131	      0.00000000	      4.13900445	    -11.45897755	     -8.37031430	    115.11817712	      2.00919122	     -6.67771531	     -9.35158962	      0.00000000
     22.51333333	      0.05335836	     -6.76546499	     -9.69167583	      2.40979440	      0.98400142	      1.05910657	     23.42835694	     10.56080203	     -2.52574899	     50.85936795	      0.88766343	     21.81489014	     -4.69405575	      0.00000000	      7.23863244	    -11.25722098	     -7.03070973	    116.96164164	      2.04136575	     -5.16621906	     -8.33507154	      0.00000000
     22.52000000	      0.26628826	     -6.39421176	     -9.35113804	      2.40732079	      0.98289777	      1.05861264	     21.56699272	     10.04662387	     -1.97074645	     51.25287499	      0.89453142	     23.81469649	     -4.76837789	      0.00000000	     10.13896139	    -11.05997804	     -5.80770288	    118.33550473	      2.06534418	     -3.76592338	     -7.40202444	      0.00000000
     22.52666667	      0.25446829	     -5.88244571	     -9.06076217	      2.40516737	      0.98223908	      1.05822157	     19.70144473	      9.38621316	     -1.46366491	     51.21552889	      0.89387961	     25.55547097	     -4.58864363	      0.00000000	     13.26205675	    -10.68060932	     -4.77880307	    119.29442924	      2.08208057	     -2.44066099	     -6.57672295	      0.00000000
     22.53333333	     -0.08111301	     -5.12200419	     -8.83645643	      2.40334668	      0.98184361	      1.05791273	     18.03899955	      8.42018681	     -1.09599723	     50.89393355	      0.88826671	     27.05500648	     -3.91123127	      0.00000000	     16.68816294	    -10.01912211	     -4.03763078	    119.84090894	      2.09161844	     -1.26061879	     -6.10384626	      0.00000000
     22.54000000	     -0.14585088	     -4.51643001	     -8.59773039	      2.40219400	      0.98276201	      1.05780760	     15.73491561	      7.63978798	     -0.62514968	     49.94014177	      0.87161990	     27.88273980	     -3.87338214	      0.00000000	     19.59531729	     -9.48845256	     -3.51381279	    119.85944394	      2.09194194	     -0.13819837	     -5.75927814	      0.00000000
     22.54666667	     -0.31851369	     -3.85563219	     -8.41185253	      2.40155910	      0.98428316	      1.05786173	     13.37584854	      6.81715030	     -0.15412414	     48.63492233	      0.84883953	     28.33186236	     -3.72895870	      0.00000000	     22.43762586	     -8.90896109	     -3.25467503	    119.44513587	      2.08471090	      0.96227271	     -5.67854106	      0.00000000
     22.55333333	     -0.36851765	     -3.16614961	     -8.11471018	      2.40175860	      0.98671776	      1.05779948	     10.68774837	      5.78573843	     -0.08034383	     46.93036297	      0.81908935	     28.47292117	     -3.10584016	      0.00000000	     24.92643864	     -8.20579824	     -3.14371735	    118.56495605	      2.06934886	      1.93636045	     -5.79860868	      0.00000000
     22.56000000	     -0.51884526	     -2.30316124	     -7.92163207	      2.40245235	      0.98964078	      1.05791224	      8.04948043	      4.60994124	      0.06167224	     45.02053048	      0.78575649	     28.30920385	     -2.46308928	      0.00000000	     27.29571015	     -7.35564982	     -3.38787241	    117.27430710	      2.04682279	      2.88108345	     -6.20587251	      0.00000000
     22.56666667	     -0.84067252	     -1.30410139	     -7.75963973	      2.40354541	      0.99287927	      1.05800345	      5.58165061	      3.29225373	      0.13753341	     42.95308439	      0.74967275	     27.70106194	     -1.93606580	      0.00000000	     29.66573211	     -6.37757058	     -3.86660126	    115.63986383	      2.01829637	      3.85678713	     -6.72339955	      0.00000000
     22.57333333	     -0.90049965	     -0.28504439	     -7.52061518	      2.40539344	      0.99705559	      1.05798088	      2.71870327	      1.82167845	     -0.17401267	     40.56840520	      0.70805224	     26.49981303	     -0.85207817	      0.00000000	     31.46785201	     -5.29563395	     -4.46141956	    113.57574780	      1.98227075	      4.60988111	     -7.63281996	      0.00000000
     22.58000000	     -1.19773471	      0.81548010	     -7.27966626	      2.40752986	      1.00139747	      1.05796285	      0.12714791	      0.35972547	     -0.47844773	     38.04566511	      0.66402212	     24.39185242	     -0.25389089	      0.00000000	     33.36066615	     -4.14897371	     -5.16571748	    111.22478553	      1.94123872	      5.34494157	     -8.51504216	      0.00000000
     22.58666667	     -1.38705859	      1.81784107	     -7.03809837	      2.41017161	      1.00634132	      1.05796166	     -2.64619990	     -0.98175481	     -0.91020531	     35.26806971	      0.61554394	     21.36214391	      0.25482251	      0.00000000	     34.87430618	     -3.10040599	     -5.90054083	    108.55846828	      1.89470270	      6.02087663	     -9.57713276	      0.00000000
     22.59333333	     -1.45508340	      2.71071788	     -6.77027150	      2.41313482	      1.01180880	      1.05794716	     -5.60009554	     -2.13127442	     -1.32022630	     32.24142145	      0.56271896	     17.40207913	      0.35044648	      0.00000000	     36.04318251	     -2.14375855	     -6.60370304	    105.62196191	      1.84345100	      6.62234053	    -10.61185798	      0.00000000
     22.60000000	     -1.79857445	      3.67886364	     -6.42933632	      2.41627975	      1.01712074	      1.05774741	     -8.13741723	     -3.31204187	     -1.97570769	     29.30322129	      0.51143769	     12.86054635	      0.39149881	      0.00000000	     37.36182166	     -1.08453512	     -7.30260707	    102.45868079	      1.78824133	      7.10846805	    -11.85935112	      0.00000000
     22.60666667	     -2.05075067	      4.48241479	     -6.06710834	      2.41962795	      1.02274478	      1.05751094	    -10.75523066	     -4.25571533	     -2.68133028	     26.28417978	      0.45874548	      7.76083826	      0.28968902	      0.00000000	     38.37466367	     -0.16451800	     -7.90813433	     99.07178756	      1.72912889	      7.54106540	    -13.05338223	      0.00000000
